<svg id="Layer_1" data-name="Layer 1" xmlns="http://www.w3.org/2000/svg" viewBox="0 0 475.999 101.867"><path d="M253.824,18.4h25.589c18.182,0,24.968,9.512,24.968,22.771,0,14.2-9.086,23.5-25.487,23.5H267.305V86.3H253.824Zm36.251,23.3c0-7.1-2.512-12.118-12.015-12.118H267.305V53.5h11.172C285.792,53.5,290.075,50.47,290.075,41.7Z"/><path d="M323.684,18.4h25.172c18.182,0,25.07,8.669,25.07,21.936,0,9.3-4.07,16.188-11.7,19.85L376.541,86.3H360.557l-11.905-23.5H337.165V86.3H323.684Zm35.937,22.149c0-7.63-3.134-10.968-12.016-10.968h-10.44V51.824H347.92C354.707,51.824,359.621,49.005,359.621,40.549Z"/><path d="M448.181,52.352c0,19.841-8.14,34.99-28.926,34.99-19.637,0-28.306-12.433-28.306-34.471,0-20.684,8.353-35.407,28.51-35.407C438.993,17.464,448.181,27.7,448.181,52.352Zm-14.305,0c0-17.032-2.5-23.716-14.417-23.716-11.386,0-14.2,6.9-14.2,24.235,0,15.15,2.1,23.29,14,23.29C431.057,76.161,433.876,68.438,433.876,52.352Z"/><path d="M213.837,50.934C213.837,22.731,190.264,0,161.22,0a50.931,50.931,0,0,0-8,.421c-22.731,3.367-37.885,19.363-46.3,31.991C98.5,19.784,83.346,3.788,60.615.421a50.931,50.931,0,0,0-8-.421C23.573,0,0,22.731,0,50.934s23.573,50.933,52.617,50.933a50.931,50.931,0,0,0,8-.421c22.731-3.367,37.885-19.363,46.3-31.991,8.418,12.628,23.572,28.624,46.3,31.991a50.937,50.937,0,0,0,8,.421c28.624-.421,52.617-23.151,52.617-50.933M57.669,83.346a24.005,24.005,0,0,1-5.473.421c-18.942,0-34.517-14.733-34.517-32.833S33.254,18.1,52.617,18.1a24.005,24.005,0,0,1,5.473.421c21.468,2.947,34.517,23.994,38.726,32.413-4.63,8.418-17.679,29.044-39.147,32.412M116.6,50.934c4.631-8.419,17.259-29.466,38.727-32.413A23.992,23.992,0,0,1,160.8,18.1c19.363,0,34.938,14.733,34.938,32.834S180.162,83.767,161.22,83.767a23.992,23.992,0,0,1-5.472-.421C133.859,79.978,120.81,59.352,116.6,50.934"/><rect x="37.464" y="45.882" width="31.57" height="10.103"/><polygon points="164.587 55.985 175.111 55.985 175.111 45.882 164.587 45.882 164.587 34.938 154.064 34.938 154.064 45.882 143.54 45.882 143.54 55.985 154.064 55.985 154.064 66.929 164.587 66.929 164.587 55.985"/><path d="M240.648,24.077a9.33,9.33,0,0,0-4.9-4.938,9.219,9.219,0,0,0-7.233,0,9.541,9.541,0,0,0-2.917,1.983,9.442,9.442,0,0,0-1.984,2.955A9.6,9.6,0,0,0,225.6,34.5a9.473,9.473,0,0,0,2.917,1.984,9.23,9.23,0,0,0,7.233,0,9.517,9.517,0,0,0,2.916-1.984,9.659,9.659,0,0,0,1.985-10.422Zm-2.042,6.587a7.03,7.03,0,0,1-1.537,2.306,7.879,7.879,0,0,1-2.231,1.574,6.29,6.29,0,0,1-2.709.585,6.525,6.525,0,0,1-2.744-.585,7.234,7.234,0,0,1-2.231-1.574,7.356,7.356,0,0,1-2.05-5.159,7.592,7.592,0,0,1,.549-2.89,7.266,7.266,0,0,1,1.5-2.343,6.784,6.784,0,0,1,2.231-1.538,6.923,6.923,0,0,1,2.744-.548,6.671,6.671,0,0,1,2.709.548,7.346,7.346,0,0,1,2.231,1.538,6.974,6.974,0,0,1,1.537,2.343,7.593,7.593,0,0,1,.551,2.89A7.32,7.32,0,0,1,238.606,30.664Z"/><path d="M234.153,28.719a2.886,2.886,0,0,0,1.205-1.088,2.94,2.94,0,0,0,.427-1.556,3.211,3.211,0,0,0-.933-2.295,4.306,4.306,0,0,0-3.188-.971q-.856,0-1.518.038t-1.282.117V32.22H231.2V29.186h.933l1.636,3.034h2.642Zm-2.335-1.245a2.365,2.365,0,0,1-.7-.076v-2.49a2.793,2.793,0,0,1,.777-.078c.984,0,1.48.441,1.48,1.323S232.855,27.474,231.818,27.474Z"/><path d="M465.06,24.747h-3.576v9.472h-2.251V24.747h-3.575V22.881h9.4Z"/><path d="M474.15,26.387,472.213,30.3h-1.6l-2.094-4.065v7.989H466.7V22.881h1.989l2.721,5.2,2.651-5.2H476V34.219H474.15Z"/></svg>